<?xml version="1.0" encoding="utf-8"?>
<!-- Generator: Adobe Illustrator 16.0.0, SVG Export Plug-In . SVG Version: 6.00 Build 0)  -->
<!DOCTYPE svg PUBLIC "-//W3C//DTD SVG 1.1//EN" "http://www.w3.org/Graphics/SVG/1.1/DTD/svg11.dtd">
<svg version="1.1" id="Layer_1" xmlns="http://www.w3.org/2000/svg" xmlns:xlink="http://www.w3.org/1999/xlink" x="0px" y="0px"
	 width="200px" height="200px" viewBox="0 0 200 200" enable-background="new 0 0 200 200" xml:space="preserve">
<rect x="46.558" y="105.708" transform="matrix(0.7071 0.7071 -0.7071 0.7071 118.6766 2.0606)" fill="#764D2A" width="20.587" height="77.142"/>
<polygon fill="#463323" points="55.983,130.588 77.31,138.374 70.54,145.146 49.551,137.021 "/>
<polygon fill="#463323" points="69.187,117.386 90.515,125.171 83.744,131.942 62.753,123.818 "/>
<polygon fill="#463323" points="42.78,143.793 64.108,151.577 57.337,158.349 36.348,150.224 "/>
<polygon fill="#463323" points="29.577,156.993 50.904,164.781 44.134,171.551 23.144,163.427 "/>
<polygon fill="#D1E2E1" points="195.971,5.158 153.652,15.653 72.063,109.431 81.88,119.249 "/>
<polygon fill="#C2D2D2" points="195.972,5.158 185.477,47.477 91.701,129.063 81.882,119.248 "/>
<polygon fill="#FFCA5F" points="69.016,88.101 83.915,117.216 72.402,128.728 61.569,95.549 "/>
<polygon fill="#E7B857" points="113.196,131.942 84.084,117.045 72.574,128.556 105.749,139.392 "/>
<path fill="#FFCA5F" d="M29.578,171.552l-7.279-7.278l-8.042,2.793l-7.556,2.286c0,0-2.662,10.897,5.508,19.568L29.578,171.552"/>
<path fill="#E7B857" d="M29.577,171.551l7.278,7.28l-2.793,8.04l-2.286,7.556c0,0-10.896,2.664-19.567-5.506L29.577,171.551"/>
<polygon fill="#AC2024" points="24.849,183.637 26.36,174.765 26.36,174.765 26.36,174.765 26.36,174.765 26.36,174.765 
	17.489,176.276 16.661,169.745 10.665,179.834 15.978,185.147 15.978,185.147 21.291,190.46 31.38,184.465 "/>
</svg>
