<?xml version="1.0" encoding="utf-8"?>
<!-- Generator: Adobe Illustrator 16.0.0, SVG Export Plug-In . SVG Version: 6.00 Build 0)  -->
<!DOCTYPE svg PUBLIC "-//W3C//DTD SVG 1.1//EN" "http://www.w3.org/Graphics/SVG/1.1/DTD/svg11.dtd">
<svg version="1.1" id="Layer_1" xmlns="http://www.w3.org/2000/svg" xmlns:xlink="http://www.w3.org/1999/xlink" x="0px" y="0px"
	 width="200px" height="200px" viewBox="0 0 200 200" enable-background="new 0 0 200 200" xml:space="preserve">
<rect x="46.558" y="105.708" transform="matrix(0.7071 0.7071 -0.7071 0.7071 118.6766 2.0606)" fill="#764D2A" width="20.587" height="77.142"/>
<polygon fill="#463323" points="55.983,130.588 77.31,138.374 70.54,145.146 49.551,137.021 "/>
<polygon fill="#463323" points="69.187,117.386 90.515,125.171 83.744,131.942 62.753,123.818 "/>
<polygon fill="#463323" points="42.78,143.793 64.108,151.577 57.337,158.349 36.348,150.224 "/>
<polygon fill="#463323" points="29.577,156.993 50.904,164.781 44.134,171.551 23.144,163.427 "/>
<polygon fill="#D1E2E1" points="195.971,5.158 153.652,15.653 72.063,109.431 81.88,119.249 "/>
<polygon fill="#C2D2D2" points="195.972,5.158 185.477,47.477 91.701,129.063 81.882,119.248 "/>
<polygon fill="#FFCA5F" points="69.016,88.101 83.915,117.216 72.402,128.728 61.569,95.549 "/>
<polygon fill="#E7B857" points="113.196,131.942 84.084,117.045 72.574,128.556 105.749,139.392 "/>
<path fill="#FFCA5F" d="M29.578,171.552l-7.279-7.278l-8.042,2.793l-7.556,2.286c0,0-2.662,10.897,5.508,19.568L29.578,171.552"/>
<path fill="#E7B857" d="M29.577,171.551l7.278,7.28l-2.793,8.04l-2.286,7.556c0,0-10.896,2.664-19.567-5.506L29.577,171.551"/>
<path fill="#AC2024" d="M29.001,180.04l-1.089-1.232l1.669-0.365l-1.198-5.696l0,0l-5.699-1.196l-0.362,1.667l-1.235-1.087
	c0,0-3.157,4.825-8.708,6.023c0,0-1.27,5.697,0.544,8.383c0,0,1.486-7.947,6.131-7.585l0.62-3.376l1.377,3.268l-1.591,1.599
	l0.214,1.014l0,0l1.014,0.214l1.597-1.592l3.266,1.378l-3.374,0.615c0.363,4.647-7.586,6.134-7.586,6.134
	c2.685,1.815,8.384,0.546,8.384,0.546C24.174,183.197,29.001,180.04,29.001,180.04z"/>
</svg>
