<?xml version="1.0" encoding="utf-8"?>

<?xml-stylesheet type="text/css" href="/dist/styles.css"?>

<svg version="1.1" id="battle-swords" xmlns="http://www.w3.org/2000/svg" xmlns:xlink="http://www.w3.org/1999/xlink" x="0px" y="0px"
	 width="200px" height="200px" viewBox="0 0 200 200" enable-background="new 0 0 200 200" xml:space="preserve">
	<g>
		<rect x="39.582" y="110.832" transform="matrix(-0.7793 -0.6266 0.6266 -0.7793 -3.9113 284.7916)" fill="#764E2B" width="17.214" height="64.505"/>
		<polygon fill="#473424" points="46.227,131.781 64.659,136.328 59.642,142.57 41.46,137.71"/>
		<polygon fill="#473424" points="56.011,119.614 74.444,124.161 69.427,130.4 51.243,125.543"/>
		<polygon fill="#473424" points="36.442,143.95 54.876,148.497 49.858,154.736 31.677,149.879"/>
		<polygon fill="#473424" points="26.66,156.117 45.092,160.665 40.075,166.903 21.892,162.045"/>
		<polygon fill="#D2E2E0" points="151.276,14.873 117.043,27.417 57.684,112.742 66.731,120.018"/>
		<polygon fill="#C3D3D3" points="151.276,14.872 146.372,51 75.782,127.289 66.733,120.017"/>
		<polygon fill="#FFCA61" points="53.226,95.286 68.24,118.144 59.708,128.754 47.707,102.149"/>
		<polygon fill="#E7B857" points="93.909,127.741 68.365,117.985 59.835,128.595 88.393,134.607"/>
		<path fill="#FFCA61" d="M27.974,168.22l-6.709-5.396l-6.433,3.048l-6.075,2.586c0,0-1.229,9.298,6.346,15.769L27.974,168.22"/>
		<path fill="#E7B857" d="M27.974,168.218l6.707,5.395l-1.596,6.936l-1.218,6.488c0,0-8.818,3.199-16.763-2.81L27.974,168.218"/>
	</g>

	<g>	
		<rect x="144.155" y="110.384" transform="matrix(0.7657 -0.6432 0.6432 0.7657 -56.309 131.9299)" fill="#764E2B" width="17.542" height="65.737"/>
		<polygon fill="#473424" points="159.665,137.629 141.245,142.979 135.997,136.729 154.68,131.691"/>
		<polygon fill="#473424" points="149.431,125.445 131.011,130.791 125.762,124.545 144.443,119.51"/>
		<polygon fill="#473424" points="169.899,149.813 151.479,155.16 146.232,148.912 164.913,143.877"/>
		<polygon fill="#473424" points="180.134,161.996 161.713,167.344 156.466,161.096 175.146,156.059"/>
		<polygon fill="#D2E2E0" points="133.529,120.154 142.59,112.543 80.245,26.906 45.093,14.873"/>
		<polygon fill="#C3D3D3" points="133.528,120.152 124.468,127.762 50.878,51.575 45.091,14.873"/>
		<polygon fill="#FFCA61" points="152.523,101.533 140.876,128.902 131.951,118.277 146.751,94.66"/>
		<polygon fill="#E7B857" points="111.777,135.494 140.742,128.742 131.821,118.121 106.007,128.617"/>
		<path fill="#FFCA61" d="M174.072,168.418l13.462,16.029c7.577-6.76,6.121-16.207,6.121-16.207l-6.245-2.5l-6.622-2.963
			L174.072,168.418"/>
		<path fill="#E7B857" d="M174.072,168.418l13.462,16.029c-7.964,6.295-17.017,3.229-17.017,3.229l-1.384-6.582l-1.777-7.033
		L174.072,168.418"/>
	</g>
</svg>
