<?xml version="1.0" encoding="utf-8"?>
<!-- Generator: Adobe Illustrator 16.0.0, SVG Export Plug-In . SVG Version: 6.00 Build 0)  -->
<!DOCTYPE svg PUBLIC "-//W3C//DTD SVG 1.1//EN" "http://www.w3.org/Graphics/SVG/1.1/DTD/svg11.dtd">
<svg version="1.1" id="Layer_1" xmlns="http://www.w3.org/2000/svg" xmlns:xlink="http://www.w3.org/1999/xlink" x="0px" y="0px"
	 width="131.333px" height="199.273px" viewBox="0 0 131.333 199.273" enable-background="new 0 0 131.333 199.273"
	 xml:space="preserve">
<polygon fill="#F6E5C3" points="22.807,46.816 27.895,52.405 48.981,45.826 38.67,39.25 "/>
<polygon fill="#F6E5C3" points="74.39,47.132 90.394,50.25 102.786,44.323 88.238,37.096 "/>
<polygon fill="#F6E5C3" points="25.535,94.878 20.889,89.538 15.617,99.358 "/>
<polygon fill="#F6E5C3" points="47.366,94.012 58.874,89.538 78.275,94.286 64.008,104.624 "/>
<polygon fill="#F6E5C3" points="104.318,93.973 113.531,90.167 118.813,100.712 "/>
<path fill="#FFDF62" d="M102.498,43.129c-0.565-14.998-18.862-26.597-35.838-26.597c-17.732,0-35.275,11.599-35.841,26.597
	c-0.75,19.99,0,76.583,0,76.583h35.841h35.838C102.498,119.712,103.247,63.119,102.498,43.129z"/>
<circle fill="#55382F" cx="74.39" cy="55.056" r="9.698"/>
<g>
	<path fill="#FFFCDD" d="M38.67,39.25l24.785,15.806l24.783-17.96l30,14.905C100.707,5.437,74.538,0.727,66.327,0.727
		c-8.475,0-33.786,4.803-51.252,49.777L38.67,39.25z"/>
</g>
<path fill="#FFFCDD" d="M15.617,99.304l23.606-10.533l24.785,14.789l24.785-16.807l30.021,13.959c0,0,43.613,93.436-51.935,98.561
	C66.878,199.272-26.872,200.701,15.617,99.304z"/>
<polygon fill="#D09A3E" points="102.831,65.65 112.577,72.476 102.831,77.738 "/>
</svg>
