<?xml version="1.0" encoding="utf-8"?>
<!-- Generator: Adobe Illustrator 16.0.0, SVG Export Plug-In . SVG Version: 6.00 Build 0)  -->
<!DOCTYPE svg PUBLIC "-//W3C//DTD SVG 1.1//EN" "http://www.w3.org/Graphics/SVG/1.1/DTD/svg11.dtd">
<svg version="1.1" id="Layer_1" xmlns="http://www.w3.org/2000/svg" xmlns:xlink="http://www.w3.org/1999/xlink" x="0px" y="0px"
	 width="200px" height="200px" viewBox="0 0 200 200" enable-background="new 0 0 200 200" xml:space="preserve">
<path fill="#BB5327" d="M99.928,194.869"/>
<path fill="#BB5327" d="M2.028,67.647"/>
<path fill="#BB5327" d="M99.928,0.958"/>
<path fill="#FFFCDD" d="M99.928,188.107"/>
<path fill="#FFFCDD" d="M9.225,70.156"/>
<path fill="#FFFCDD" d="M99.928,15.459"/>
<line fill="none" x1="99.928" y1="88.058" x2="99.928" y2="43.364"/>
<path fill="#BB5327" d="M94.354,99.99"/>
<path fill="#A54920" d="M99.928,8.434c0,0,59.282-1.606,99.915,42.506c0,0-19.944,126.512-99.915,144.193"/>
<path fill="#E0C583" d="M99.928,13.667c0,0,55.958-1.516,94.314,40.125c0,0-18.826,119.419-94.314,136.108"/>
<path fill="#BB5327" d="M99.928,8.434c0,0-59.282-1.606-99.915,42.506c0,0,19.943,126.512,99.915,144.193"/>
<path fill="#F7D98F" d="M99.928,13.667c0,0-55.959-1.516-94.313,40.125c0,0,18.824,119.419,94.313,136.108"/>
<polygon fill="#BB5327" points="99.928,48.403 99.929,131.715 57.295,131.715 40.867,67.177 70.398,90.058 "/>
<polygon fill="#A54920" points="99.93,48.403 99.929,131.715 142.563,131.715 158.99,67.177 129.459,90.058 "/>
</svg>
