<?xml version="1.0" encoding="utf-8"?>
<!-- Generator: Adobe Illustrator 16.0.0, SVG Export Plug-In . SVG Version: 6.00 Build 0)  -->
<!DOCTYPE svg PUBLIC "-//W3C//DTD SVG 1.1//EN" "http://www.w3.org/Graphics/SVG/1.1/DTD/svg11.dtd">
<svg version="1.1" id="Layer_1" xmlns="http://www.w3.org/2000/svg" xmlns:xlink="http://www.w3.org/1999/xlink" x="0px" y="0px"
	 width="200px" height="200px" viewBox="0 0 200 200" enable-background="new 0 0 200 200" xml:space="preserve">
<path fill="#BB5327" d="M99.928,194.869"/>
<path fill="#BB5327" d="M2.028,67.647"/>
<path fill="#BB5327" d="M99.928,0.958"/>
<path fill="#FFFCDD" d="M99.928,188.107"/>
<path fill="#FFFCDD" d="M9.225,70.156"/>
<path fill="#FFFCDD" d="M99.928,15.459"/>
<path fill="#BB5327" d="M94.354,99.99"/>
<path fill="#A54920" d="M99.928,8.434c0,0,59.282-1.606,99.915,42.506c0,0-19.944,126.512-99.915,144.193"/>
<path fill="#E0C583" d="M99.928,13.667c0,0,55.958-1.516,94.314,40.125c0,0-18.826,119.419-94.314,136.108"/>
<path fill="#BB5327" d="M99.928,8.434c0,0-59.282-1.606-99.915,42.506c0,0,19.943,126.512,99.915,144.193"/>
<path fill="#F7D98F" d="M99.928,13.667c0,0-55.959-1.516-94.313,40.125c0,0,18.824,119.419,94.313,136.108"/>
<path fill="#BB5327" d="M100,35.425l-28.087,18.33l5.321,8.278l-9.461,0.591c0,0,6.605,31.615-10.938,60.021
	c0,0,18.234,28.344,36.366,31.932c0,0-26.125-38.017-5.913-55.881l-11.236-16.26l18.923,7.687l0.021,12.997l5.005,3.265V35.425z"/>
<path fill="#A54920" d="M100,35.425l28.087,18.33l-5.321,8.278l9.461,0.591c0,0-6.605,31.615,10.938,60.021
	c0,0-18.234,28.344-36.366,31.932c0,0,26.125-38.017,5.913-55.881l11.236-16.26l-18.923,7.687l-0.021,12.997L100,106.384V35.425z"/>
</svg>
