<?xml version="1.0" encoding="utf-8"?>
<!-- Generator: Adobe Illustrator 16.0.0, SVG Export Plug-In . SVG Version: 6.00 Build 0)  -->
<!DOCTYPE svg PUBLIC "-//W3C//DTD SVG 1.1//EN" "http://www.w3.org/Graphics/SVG/1.1/DTD/svg11.dtd">
<svg version="1.1" id="Layer_1" xmlns="http://www.w3.org/2000/svg" xmlns:xlink="http://www.w3.org/1999/xlink" x="0px" y="0px"
	 width="200px" height="200px" viewBox="0 0 200 200" enable-background="new 0 0 200 200" xml:space="preserve">
<path fill="#BB5327" d="M99.928,194.869"/>
<path fill="#BB5327" d="M2.028,67.647"/>
<path fill="#BB5327" d="M99.928,0.958"/>
<path fill="#FFFCDD" d="M99.928,188.108"/>
<path fill="#FFFCDD" d="M9.225,70.156"/>
<path fill="#FFFCDD" d="M99.928,15.459"/>
<line fill="#BB5327" x1="99.928" y1="88.058" x2="99.928" y2="43.364"/>
<path fill="#BB5327" d="M94.354,99.99"/>
<path fill="#BB5327" d="M99.928,8.434c0,0,59.282-1.606,99.915,42.506c0,0-19.944,126.512-99.915,144.193"/>
<path fill="#FFFCDD" d="M99.928,13.667c0,0,55.958-1.516,94.314,40.125c0,0-18.826,119.419-94.314,136.109"/>
<path fill="#BB5327" d="M99.928,8.434c0,0-59.282-1.606-99.915,42.506c0,0,19.943,126.512,99.915,144.193"/>
<path fill="#FFFCDD" d="M99.928,13.667c0,0-55.959-1.516-94.313,40.125c0,0,18.824,119.419,94.313,136.109"/>
<path fill="#BB5327" d="M131.893,62.625l-9.461-0.591l5.321-8.278L99.666,35.424v0.001L71.579,53.755l5.322,8.278l-9.461,0.591
	c0,0,6.8,32.523-10.939,60.02c0,0,18.036,28.384,36.366,31.932c0,0-26.313-38.436-5.913-55.88L75.718,82.435l18.922,7.687
	l0.021,12.997l5.005,3.265v-0.001l5.004-3.264l0.021-12.997l18.923-7.688l-11.235,16.261c20.401,17.445-5.913,55.88-5.913,55.88
	c18.331-3.548,36.366-31.932,36.366-31.932C125.093,95.147,131.893,62.625,131.893,62.625z"/>
</svg>
