<?xml version="1.0" encoding="utf-8"?>
<!-- Generator: Adobe Illustrator 16.0.0, SVG Export Plug-In . SVG Version: 6.00 Build 0)  -->
<!DOCTYPE svg PUBLIC "-//W3C//DTD SVG 1.1//EN" "http://www.w3.org/Graphics/SVG/1.1/DTD/svg11.dtd">
<svg version="1.1" id="Layer_1" xmlns="http://www.w3.org/2000/svg" xmlns:xlink="http://www.w3.org/1999/xlink" x="0px" y="0px"
	 width="400px" height="500px" viewBox="0 0 400 500" enable-background="new 0 0 400 500" xml:space="preserve">
<rect stroke="#000000" stroke-miterlimit="10" width="400" height="500"/>
<path fill="#B81F31" stroke="#000000" stroke-miterlimit="10" d="M159.696,118.932c0,12.15-9.851,22-22,22H79.153
	c-12.15,0-22-9.85-22-22V60.389c0-12.15,9.85-22,22-22h58.543c12.149,0,22,9.85,22,22V118.932z"/>
<path fill="#2E3192" stroke="#000000" stroke-miterlimit="10" d="M159.696,438.424c0,12.15-9.851,22-22,22H79.153
	c-12.15,0-22-9.85-22-22v-58.543c0-12.15,9.85-22,22-22h58.543c12.149,0,22,9.85,22,22V438.424z"/>
<path fill="#EF4136" stroke="#000000" stroke-miterlimit="10" d="M341.898,118.932c0,12.15-9.851,22-22,22h-58.543
	c-12.15,0-22-9.85-22-22V60.389c0-12.15,9.85-22,22-22h58.543c12.149,0,22,9.85,22,22V118.932z"/>
<path fill="#006838" stroke="#000000" stroke-miterlimit="10" d="M341.898,438.424c0,12.15-9.851,22-22,22h-58.543
	c-12.15,0-22-9.85-22-22v-58.542c0-12.15,9.85-22,22-22h58.543c12.149,0,22,9.85,22,22V438.424z"/>
</svg>
