<?xml version="1.0" encoding="utf-8"?>
<!-- Generator: Adobe Illustrator 16.0.0, SVG Export Plug-In . SVG Version: 6.00 Build 0)  -->
<!DOCTYPE svg PUBLIC "-//W3C//DTD SVG 1.1//EN" "http://www.w3.org/Graphics/SVG/1.1/DTD/svg11.dtd">
<svg version="1.1" id="Layer_1" xmlns="http://www.w3.org/2000/svg" xmlns:xlink="http://www.w3.org/1999/xlink" x="0px" y="0px"
	 width="200px" height="200px" viewBox="0 0 200 200" enable-background="new 0 0 200 200" xml:space="preserve">
<path fill="#B9873B" d="M91.661,119.152c0,0,0.049,31.994-29.01,44.428h37.445v-44.428H91.661z"/>
<path fill="#A67A33" d="M108.533,119.152c0,0-0.049,31.994,29.009,44.428h-37.444v-44.428H108.533z"/>
<rect x="54.602" y="167.778" fill="#976330" width="90.994" height="27.412"/>
<path fill="#B67536" d="M84.056,116.645h16.04l0.002,15.78C100.098,132.425,82.992,134.115,84.056,116.645z"/>
<path fill="#A56B30" d="M116.14,116.645H100.1l-0.001,15.78C100.098,132.425,117.203,134.115,116.14,116.645z"/>
<path fill="#A67A33" d="M167.801,0.611h-67.704v119.831C100.097,120.441,167.801,120.441,167.801,0.611z"/>
<path fill="#B9873B" d="M32.393,0.611h67.703v119.831C100.096,120.441,32.393,120.441,32.393,0.611z"/>
<path fill="#B67536" d="M32.877,17.527H6.406c0,0,2.308,62.273,48,74.504L48.071,80.45c0,0-30.046-12.421-32.593-53.463
	l18.174,0.416L32.877,17.527z"/>
<path fill="#A56B30" d="M167.122,17.527h26.471c0,0-2.306,62.273-47.997,74.504l6.335-11.582c0,0,30.045-12.421,32.591-53.463
	l-18.172,0.416L167.122,17.527z"/>
<path fill="#B67536" d="M100.096,167.778l0.002-4.198h-46.58c0,0-4.319,1.964,0,4.198H100.096z"/>
<path fill="#B67536" d="M100.096,199.389l0.002-4.198h-46.58c0,0-4.319,1.963,0,4.198H100.096z"/>
<path fill="#A56B30" d="M100.101,167.778l-0.002-4.198h46.58c0,0,4.32,1.964,0,4.198H100.101z"/>
<path fill="#A56B30" d="M100.101,199.389l-0.002-4.198h46.58c0,0,4.32,1.963,0,4.198H100.101z"/>
<g>
	<path fill="#B67536" d="M100.099,187.537c0,1.1-0.9,2-2,2H66.143c-1.1,0-2-0.9-2-2v-11.032c0-1.1,0.9-2,2-2h31.957c1.1,0,2,0.9,2,2
		V187.537z"/>
</g>
<rect x="67.809" y="174.505" fill="#B67536" width="32.291" height="15.032"/>
<rect x="100.096" y="167.778" fill="#8B5B2B" width="45.5" height="27.412"/>
<g>
	<path fill="#A56B30" d="M100.096,187.537c0,1.1,0.9,2,2,2h31.956c1.1,0,2-0.9,2-2v-11.032c0-1.1-0.9-2-2-2h-31.956
		c-1.1,0-2,0.9-2,2V187.537z"/>
</g>
<rect x="100.042" y="174.505" fill="#A56B30" width="32.291" height="15.032"/>
</svg>
