<?xml version="1.0" encoding="utf-8"?>
<!-- Generator: Adobe Illustrator 16.0.0, SVG Export Plug-In . SVG Version: 6.00 Build 0)  -->
<!DOCTYPE svg PUBLIC "-//W3C//DTD SVG 1.1//EN" "http://www.w3.org/Graphics/SVG/1.1/DTD/svg11.dtd">
<svg version="1.1" id="Layer_1" xmlns="http://www.w3.org/2000/svg" xmlns:xlink="http://www.w3.org/1999/xlink" x="0px" y="0px"
	 width="200px" height="200px" viewBox="0 0 200 200" enable-background="new 0 0 200 200" xml:space="preserve">
<path fill="#DF1A22" d="M177.036,65.072c9.869-14.009,22.392-63.914,22.398-63.94V1.13l0,0l0,0v0.001
	c-0.029,0.005-49.932,12.529-63.939,22.396c-22.219,15.652-68.8,84.378-68.8,84.378l12.982,12.982l0,0l12.98,12.98
	C92.658,133.869,161.383,87.29,177.036,65.072z"/>
<path fill="#55382F" d="M182.7,54.133c8.413-19.852,16.729-52.98,16.734-53.001V1.13l0,0l0,0v0.001
	c-0.022,0.005-32.971,8.272-52.84,16.665c-2.292,0.969,3.108,13.381,12.469,22.788S181.742,56.39,182.7,54.133z"/>
<g>
	<path fill="#684A3C" d="M153.701,73.245c-7.273,7.274-19.069,7.275-26.341,0.002c-7.274-7.273-7.271-19.066,0.003-26.341
		c7.271-7.271,19.062-7.271,26.335,0.003C160.971,54.182,160.973,65.975,153.701,73.245z"/>
	<path fill="#E9DABA" d="M151.54,71.084c-6.081,6.081-15.938,6.081-22.018,0.001c-6.08-6.08-6.078-15.936,0.002-22.017
		c6.078-6.077,15.934-6.078,22.015,0.002C157.616,55.15,157.616,65.006,151.54,71.084z"/>
	<path fill="#FFFCDD" d="M156.097,60.192c-0.063,8.594-31.194,8.37-31.132-0.225c0.062-8.599,7.081-15.518,15.678-15.456
		C149.241,44.573,156.159,51.592,156.097,60.192z"/>
</g>
<g>
	<path fill="#F15A29" d="M73.665,165.808c-4.833,4.834-23.38,12.473-37.888,16.87C16.417,188.541,0.934,200,0.934,200
		s11.955-15.158,17.575-34.591c4.613-15.952,11.787-33.305,16.619-38.138c10.64-10.641,27.895-10.642,38.535,0
		C84.305,137.914,84.306,155.168,73.665,165.808z"/>
	<path fill="#FAA41A" d="M73.664,158.866c-3.962,3.963-19.168,10.228-31.063,13.831c-15.873,4.81-28.567,14.203-28.567,14.203
		s9.8-12.428,14.41-28.36c3.781-13.078,9.662-27.307,13.625-31.269c8.724-8.723,22.87-8.725,31.595,0
		C82.388,135.997,82.387,150.144,73.664,158.866z"/>
	<path fill="#FFF200" d="M73.663,152.05c-3.107,3.108-15.032,8.021-24.358,10.848c-12.451,3.771-22.407,11.139-22.407,11.139
		s7.689-9.749,11.302-22.243c2.967-10.257,7.578-21.414,10.686-24.521c6.843-6.843,17.936-6.841,24.778,0
		C80.506,134.113,80.506,145.208,73.663,152.05z"/>
</g>
<polyline fill="#55382F" points="66.695,107.906 55.171,108.778 92.159,145.766 92.658,133.869 "/>
<polyline fill="#55382F" points="65.551,115.919 57.03,116.563 84.374,143.906 84.744,135.112 "/>
</svg>
