<?xml version="1.0" encoding="utf-8"?>
<!-- Generator: Adobe Illustrator 16.0.0, SVG Export Plug-In . SVG Version: 6.00 Build 0)  -->
<!DOCTYPE svg PUBLIC "-//W3C//DTD SVG 1.1//EN" "http://www.w3.org/Graphics/SVG/1.1/DTD/svg11.dtd">
<svg version="1.1" id="Layer_1" xmlns="http://www.w3.org/2000/svg" xmlns:xlink="http://www.w3.org/1999/xlink" x="0px" y="0px"
	 width="200px" height="200px" viewBox="0 0 200 200" enable-background="new 0 0 200 200" xml:space="preserve">
<path fill="#BB5327" d="M99.928,194.869"/>
<path fill="#BB5327" d="M2.028,67.647"/>
<path fill="#BB5327" d="M99.928,0.958"/>
<path fill="#FFFCDD" d="M99.928,188.108"/>
<path fill="#FFFCDD" d="M9.225,70.156"/>
<path fill="#FFFCDD" d="M99.928,15.459"/>
<line fill="#BB5327" x1="99.928" y1="88.058" x2="99.928" y2="43.364"/>
<path fill="#BB5327" d="M94.354,99.99"/>
<path fill="#BB5327" d="M99.928,8.434c0,0,59.282-1.606,99.915,42.506c0,0-19.944,126.512-99.915,144.193"/>
<path fill="#FFFCDD" d="M99.928,13.667c0,0,55.958-1.516,94.314,40.125c0,0-18.826,119.419-94.314,136.109"/>
<path fill="#BB5327" d="M99.928,36.546c0,0,17.646,21.591,59.282,24.243l-4.113,17.422l-18.282,6.063l18.893,14.392
	c0,0-20.291,21.591-16.617,53.409l-33.587-58.903l34.985-19.128l-40.561,7.196V36.546z"/>
<path fill="#BB5327" d="M99.928,8.434c0,0-59.282-1.606-99.915,42.506c0,0,19.943,126.512,99.915,144.193"/>
<path fill="#FFFCDD" d="M99.928,13.667c0,0-55.959-1.516-94.313,40.125c0,0,18.824,119.419,94.313,136.109"/>
<path fill="#BB5327" d="M99.928,36.546c0,0-17.645,21.591-59.282,24.243l4.113,17.422l18.282,6.063L44.147,98.666
	c0,0,20.292,21.591,16.618,53.409l33.588-58.903L59.367,74.043l40.561,7.196V36.546z"/>
</svg>
