<?xml version="1.0" encoding="utf-8"?>
<!-- Generator: Adobe Illustrator 16.0.0, SVG Export Plug-In . SVG Version: 6.00 Build 0)  -->
<!DOCTYPE svg PUBLIC "-//W3C//DTD SVG 1.1//EN" "http://www.w3.org/Graphics/SVG/1.1/DTD/svg11.dtd">
<svg version="1.1" id="Layer_1" xmlns="http://www.w3.org/2000/svg" xmlns:xlink="http://www.w3.org/1999/xlink" x="0px" y="0px"
	 width="200px" height="200px" viewBox="0 0 200 200" enable-background="new 0 0 200 200" xml:space="preserve">
<path fill="#DF1A22" d="M177.036,65.072c9.868-14.009,22.392-63.914,22.397-63.94V1.13l0,0l0,0v0.001
	c-0.029,0.005-49.932,12.529-63.938,22.396c-22.22,15.652-68.8,84.377-68.8,84.377l12.982,12.982l0,0l12.98,12.98
	C92.658,133.869,161.383,87.29,177.036,65.072z"/>
<path fill="#55382F" d="M182.7,54.133c8.413-19.852,16.729-52.98,16.733-53.001V1.13l0,0l0,0v0.001
	c-0.021,0.005-32.971,8.272-52.84,16.665c-2.292,0.969,3.108,13.381,12.469,22.788C168.424,49.991,181.742,56.39,182.7,54.133z"/>
<g>
	<path fill="#684A3C" d="M153.701,73.245c-7.273,7.274-19.069,7.275-26.342,0.002c-7.273-7.273-7.271-19.066,0.004-26.341
		c7.271-7.271,19.062-7.271,26.335,0.003C160.971,54.182,160.973,65.975,153.701,73.245z"/>
	<path fill="#E9DABA" d="M151.54,71.084c-6.081,6.081-15.938,6.081-22.019,0.001s-6.078-15.936,0.002-22.017
		c6.078-6.077,15.935-6.078,22.016,0.002C157.616,55.15,157.616,65.006,151.54,71.084z"/>
	<path fill="#FFFCDD" d="M156.098,60.192c-0.063,8.594-31.195,8.37-31.133-0.225c0.063-8.599,7.081-15.518,15.678-15.456
		C149.241,44.573,156.159,51.592,156.098,60.192z"/>
</g>
<g>
	<path fill="#F15A29" d="M73.665,165.809c-4.833,4.834-23.38,12.473-37.888,16.869C16.417,188.541,0.934,200,0.934,200
		s11.955-15.158,17.575-34.591c4.613-15.952,11.787-33.306,16.619-38.138c10.64-10.642,27.895-10.643,38.535,0
		C84.305,137.914,84.306,155.168,73.665,165.809z"/>
	<path fill="#FAA41A" d="M73.664,158.866c-3.962,3.963-19.168,10.228-31.063,13.831c-15.873,4.81-28.567,14.203-28.567,14.203
		s9.8-12.428,14.41-28.36c3.781-13.078,9.662-27.308,13.625-31.269c8.724-8.724,22.87-8.726,31.595,0
		C82.388,135.997,82.387,150.145,73.664,158.866z"/>
	<path fill="#FFF200" d="M73.663,152.05c-3.107,3.108-15.032,8.021-24.358,10.849c-12.451,3.771-22.407,11.139-22.407,11.139
		s7.689-9.749,11.302-22.243c2.967-10.257,7.578-21.414,10.686-24.521c6.843-6.844,17.936-6.842,24.778,0
		C80.506,134.113,80.506,145.208,73.663,152.05z"/>
</g>
<polyline fill="#55382F" points="66.695,107.906 55.171,108.777 92.159,145.766 92.658,133.869 "/>
<polyline fill="#55382F" points="65.551,115.919 57.03,116.563 84.374,143.906 84.744,135.111 "/>
<path fill="#302719" d="M120.721,96.037l-2.222-2.519l3.407-0.741l-2.444-11.632v0.001l-11.632-2.445l-0.741,3.408l-2.519-2.223
	c0,0-6.445,9.854-17.781,12.298c0,0-2.593,11.632,1.111,17.114c0,0,3.037-16.225,12.521-15.484l1.259-6.89l2.815,6.668l-3.251,3.262
	l0.436,2.073l0,0l2.072,0.436l3.264-3.251l6.666,2.816l-6.89,1.258c0.74,9.485-15.484,12.522-15.484,12.522
	c5.482,3.705,17.114,1.11,17.114,1.11C110.867,102.482,120.721,96.037,120.721,96.037z"/>
</svg>
